<?xml version="1.0" encoding="UTF-8"?>
<svg id="Capa_2" data-name="Capa 2" xmlns="http://www.w3.org/2000/svg" viewBox="0 0 773.71 769.31">
  <defs>
    <style>
      .cls-1 {
        fill: #009ddd;
      }

      .cls-1, .cls-2 {
        stroke-width: 0px;
      }

      .cls-2 {
        fill: #0f4571;
      }
    </style>
  </defs>
  <g id="Capa_1-2" data-name="Capa 1">
    <path class="cls-1" d="M420.52,395.65c0-60.99-.03-121.98.02-182.97.01-13.73.43-14.04,14.04-14.07,71.59-.21,143.17-2.43,214.77-1.71,22.62.23,45.2,3.63,67.86.71,5.83-.75,9.19,2.74,11.59,7.65,21.54,44.03,36.1,89.94,42.22,138.88,7.19,57.53-.43,113.08-18.82,167.27-21.56,63.51-58.95,116.87-109.11,161.22-38.68,34.2-82.71,59.51-131.65,75.78-73.91,24.58-148.58,27.82-224.38,8.01-67.45-17.63-126.27-50.43-175.09-99.58C49.83,594.26,14.26,517.96,2.57,430.59c-5.12-38.28-1.57-76.44,1.89-114.61.54-6,3.12-9.23,9.34-9.23,17,.02,33.99,0,50.99,0,6.1,0,8.11,2.29,6.57,8.75-15.79,66.2-7.4,130.29,17.94,192.62,28.55,70.19,78.32,122.09,143.7,158.19,63.09,34.83,131.45,46.29,203.08,35.24,71.29-11,132.43-42.72,182.31-94.2,65.54-67.66,95.82-149.45,89.75-243.77-1.91-29.64-8.35-58.68-18.5-86.72-7.25-20.05-7.38-20-28.58-20.01-53.99-.02-107.98-.02-161.97-.1-20.57-.03-20.11-.11-20.76,20.7-.84,26.96.28,53.9-.1,80.84-.14,9.67,3.42,12.65,12.85,12.58,42.32-.31,84.65-.09,126.98.02,13.53.03,13.92.87,14.45,14.05.53,13.02-2.6,25.86-1.3,38.91.78,7.83-5.45,7.13-10.31,7.15-23.33.11-46.66.04-69.99.03-20.66,0-41.33.21-61.99-.11-7.81-.12-10.66,2.96-10.54,10.64.29,17.33.18,34.66-.03,51.99-.36,30.3-1.11,60.6-1.23,90.91-.03,6.87-2.88,8.74-8.94,8.67-11.33-.14-22.66.04-33.99-.04-13.04-.09-13.66-.62-13.69-13.48-.09-53.99-.09-107.98-.12-161.97,0-7.33,0-14.66,0-22h.12Z"/>
    <path class="cls-2" d="M156.09,256.97c-40.29-.91-80.62,1.18-120.9-1.85-12.31-.93-12.88-1.23-7.73-12.67C84.3,115.99,180.93,37.57,315.85,7.98c88.9-19.49,173.4-2.09,253.56,39.17,41.38,21.3,76.39,50.83,108.39,84.22,1.61,1.68,2.85,3.69,4.35,5.48,4.92,5.9,2.64,7.97-4.09,8.06-23.65.33-47.29.93-70.94,1.05-8.1.04-14.09-5.38-20.42-9.72-34.74-23.84-70.84-45.24-111.32-57.89-74.86-23.38-147.86-17.22-219.17,14.67-50.03,22.37-90.24,57.28-126.33,97.6-1.51,1.69-4.18,3.37-3.13,5.79,1.5,3.47,5.23,2.19,8.04,2.2,37.99.14,76-.42,113.98.35,84.92,1.71,130.65,71.19,122.38,140.98-6.05,51.07-33.62,84.95-82.49,101.34-2.21.74-4.4,1.56-6.65,2.19-7.63,2.16-7.54,5.36-2.62,11.13,27.23,31.91,54.14,64.09,81.16,96.18,9.22,10.95,18.46,21.88,27.66,32.85,1.66,1.98,4.21,3.92,2.76,6.9-1.42,2.93-4.58,2.34-7.14,2.35-19,.1-37.99.05-56.99.14-5.44.03-9.28-2.12-12.64-6.53-40.33-53.02-82.4-104.66-124.52-156.26-6.87-8.41-7.85-18.24-8.52-28.14-.52-7.6,5.45-7.82,11.15-7.79,20.3.13,40.59,1.33,60.88-1.28,29.17-3.75,54.06-24.3,58.89-49.39,6.63-34.43-7.16-66.63-34.84-81.33-7.88-4.18-16.39-5.34-25.16-5.34-31.99.01-63.99,0-95.99,0Z"/>
  </g>
</svg>